HIERARCHY
ROOT Hips
{
	OFFSET -3.958830 18.904000 13.208200
	CHANNELS 6 Xposition Yposition Zposition Zrotation Yrotation Xrotation 
	JOINT LHipJoint
	{
		OFFSET 0.000000 0.000000 0.000000
		CHANNELS 3 Zrotation Yrotation Xrotation
		JOINT LeftUpLeg
		{
			OFFSET 1.800000 -1.400000 0.085000
			CHANNELS 3 Zrotation Yrotation Xrotation
			JOINT LeftLeg
			{
				OFFSET 2.215000 -6.000000 0.000000
				CHANNELS 3 Zrotation Yrotation Xrotation
				JOINT LeftFoot
				{
					OFFSET 2.500000 -6.900000 0.000000
					CHANNELS 3 Zrotation Yrotation Xrotation
					JOINT LeftToeBase
					{
						OFFSET 0.200000 -0.500000 1.950000
						CHANNELS 3 Zrotation Yrotation Xrotation
						End Site
						{
							OFFSET 0.000000 0.000000 0.000000
						}
					}
				}
			}
		}
	}
	JOINT RHipJoint
	{
		OFFSET 0.000000 0.000000 0.000000
		CHANNELS 3 Zrotation Yrotation Xrotation
		JOINT RightUpLeg
		{
			OFFSET -1.800000 -1.400000 0.085000
			CHANNELS 3 Zrotation Yrotation Xrotation
			JOINT RightLeg
			{
				OFFSET -2.215000 -6.000000 0.000000
				CHANNELS 3 Zrotation Yrotation Xrotation
				JOINT RightFoot
				{
					OFFSET -2.500000 -6.900000 0.000000
					CHANNELS 3 Zrotation Yrotation Xrotation
					JOINT RightToeBase
					{
						OFFSET -0.200000 -0.500000 1.950000
						CHANNELS 3 Zrotation Yrotation Xrotation
						End Site
						{
							OFFSET 0.000000 0.000000 0.000000
						}
					}
				}
			}
		}
	}
	JOINT LowerBack
	{
		OFFSET 0.000000 0.000000 0.000000
		CHANNELS 3 Zrotation Yrotation Xrotation
		JOINT Spine
		{
			OFFSET -0.087000 1.940000 -0.288900
			CHANNELS 3 Zrotation Yrotation Xrotation
			JOINT Spine1
			{
				OFFSET 0.000000 1.950000 0.060000
				CHANNELS 3 Zrotation Yrotation Xrotation
				JOINT Neck
				{
					OFFSET 0.000000 0.000000 0.000000
					CHANNELS 3 Zrotation Yrotation Xrotation
					JOINT Neck1
					{
						OFFSET 0.000000 1.600000 0.340000
						CHANNELS 3 Zrotation Yrotation Xrotation
						JOINT Head
						{
							OFFSET 0.000000 1.667000 -0.240000
							CHANNELS 3 Zrotation Yrotation Xrotation
							End Site
							{
								OFFSET 0.000000 0.000000 0.000000
							}
						}
					}
				}
				JOINT LeftShoulder
				{
					OFFSET 0.000000 0.000000 0.000000
					CHANNELS 3 Zrotation Yrotation Xrotation
					JOINT LeftArm
					{
						OFFSET 2.700000 1.550000 -0.730000
						CHANNELS 3 Zrotation Yrotation Xrotation
						JOINT LeftForeArm
						{
							OFFSET 5.450000 0.000000 0.000000
							CHANNELS 3 Zrotation Yrotation Xrotation
							JOINT LeftHand
							{
								OFFSET 3.450000 0.000000 0.000000
								CHANNELS 3 Zrotation Yrotation Xrotation
								JOINT LeftHandIndex1
								{
									OFFSET 0.750000 0.000000 0.000000
									CHANNELS 3 Zrotation Yrotation Xrotation
									End Site
									{
										OFFSET 0.000000 0.000000 0.000000
									}
								}
							}
						}
					}
				}
				JOINT RightShoulder
				{
					OFFSET 0.000000 0.000000 0.000000
					CHANNELS 3 Zrotation Yrotation Xrotation
					JOINT RightArm
					{
						OFFSET -2.700000 1.550000 -0.730000
						CHANNELS 3 Zrotation Yrotation Xrotation
						JOINT RightForeArm
						{
							OFFSET -5.450000 0.000000 0.000000
							CHANNELS 3 Zrotation Yrotation Xrotation
							JOINT RightHand
							{
								OFFSET -3.450000 0.000000 0.000000
								CHANNELS 3 Zrotation Yrotation Xrotation
								JOINT RightHandIndex1
								{
									OFFSET -0.750000 0.000000 0.000000
									CHANNELS 3 Zrotation Yrotation Xrotation
									End Site
									{
										OFFSET 0.000000 0.000000 0.000000
									}
								}
							}
						}
					}
				}
			}
		}
	}
}
MOTION
Frames: 9
Frame Time: 0.016667
-0.500460 17.730470 -4.492530 -0.227114 -16.359855 -21.169272 -14.895514 13.007429 2.317351 7.611643 1.430420 -2.028407 -8.968337 13.440072 34.585757 0.551061 8.057687 1.886841 0.271270 0.129510 0.183110 18.545563 -11.531058 2.902297 -9.317553 -1.357920 9.249833 11.377906 -8.250079 13.917850 -0.671994 -6.124331 2.362148 0.176810 0.422380 0.189350 -4.312950 -0.204710 -6.707413 11.326312 6.478352 6.438214 -1.243679 5.891441 26.076008 -0.554767 -2.729144 -13.490637 -8.727391 5.681289 47.212816 1.347280 1.953380 2.531920 0.421474 -24.867632 8.090711 -14.980462 -32.578136 -4.354957 133.238466 9.044660 -5.989472 -3.981773 3.505524 0.079930 0.300700 -0.172900 0.146810 1.475408 28.090545 9.984629 24.668705 25.703343 -10.922436 -130.283384 -6.517288 -13.178020 2.142319 -2.685780 -0.142360 0.170960 -0.004110 -0.009320 
-0.496690 17.698850 -4.498740 -0.186498 -17.332360 -22.394840 -14.856966 12.933349 2.280314 7.887603 1.864972 0.085810 -9.116020 13.363112 33.416442 0.554894 7.995404 1.946413 0.314860 0.190690 0.220540 18.588536 -11.636734 2.913709 -9.582373 -1.396797 10.393939 10.944365 -8.315309 14.381659 -0.716237 -6.297171 2.308764 0.224600 0.424150 0.199740 -4.465432 0.109094 -6.642544 12.438775 6.296555 7.037730 -1.720848 6.067000 27.286227 -0.122116 -2.507518 -12.851353 -7.714039 5.094429 46.144998 -0.594600 2.709130 1.813830 -0.830840 -25.856792 7.453890 -11.999841 -33.266816 -4.702346 138.757118 10.922998 -0.979155 -3.999625 3.589216 0.045330 0.327290 -0.169220 0.174930 1.959956 28.950407 9.733201 21.222921 26.235944 -11.444682 -131.636129 -7.806904 -11.256655 2.141106 -2.758370 -0.135920 0.178810 -0.045660 -0.004910 
-0.500490 17.621910 -4.520810 -0.330843 -16.859924 -23.792150 -14.907596 12.942530 2.242576 8.128698 2.082673 1.856330 -8.651844 13.106808 33.041331 0.611749 7.957748 1.974478 0.361700 0.287070 0.205220 18.554047 -11.621918 2.932257 -9.171269 -1.607619 12.271090 10.184614 -8.296582 14.629850 -0.778052 -6.501567 2.243086 0.267900 0.432380 0.253900 -4.341457 0.094439 -6.617871 11.898641 6.275751 7.522623 -0.513138 5.604350 28.436284 0.222983 -1.599534 -12.324318 -5.428881 4.308805 45.413257 -1.735300 3.217820 1.898790 -2.358369 -28.209913 7.030127 -8.399206 -34.180904 -5.721243 144.540957 13.027929 6.121416 -4.032597 3.782375 -0.032950 0.370340 -0.157210 0.222840 2.970025 30.828840 9.415090 17.645159 27.366169 -11.955254 -136.533183 -11.031741 -4.940072 2.144231 -2.960014 -0.072310 0.132820 -0.087470 0.041630 
-0.501880 17.532780 -4.537420 -0.663285 -16.093440 -25.180845 -14.946890 12.932987 2.199280 8.511899 2.033045 3.043361 -7.944156 13.106607 34.190548 0.565896 8.225314 1.843618 0.413700 0.309060 0.243820 18.538475 -11.589008 2.934276 -8.653395 -1.729666 14.163572 9.692282 -8.478590 15.670838 -0.821474 -6.756941 2.101975 0.318550 0.426680 0.323570 -4.266716 0.064207 -6.562230 11.906087 6.617297 8.136763 0.319422 5.370775 29.789555 0.307817 -1.033073 -11.482827 -4.188644 3.284880 43.349570 -1.497710 2.044500 -0.121370 -1.454733 -29.863594 6.300713 -6.353694 -36.929724 -6.311142 147.537122 14.863143 10.863505 -4.108792 3.911632 -0.044170 0.395810 -0.181980 0.181850 1.847469 31.982969 8.662614 14.254966 27.416536 -13.651192 -141.144809 -14.989765 5.225096 2.142760 -3.176949 -0.053610 0.087320 -0.047990 0.015960 
-0.501770 17.447300 -4.563620 -0.766403 -16.935876 -25.817750 -14.962824 12.932724 2.200524 9.093320 2.125438 3.479262 -8.345184 13.743770 35.241485 0.612652 8.568494 1.771922 0.463640 0.392380 0.252880 18.543176 -11.579940 2.848176 -8.066140 -1.623014 14.343022 8.487564 -8.436559 17.876831 -0.825955 -6.871218 2.080432 0.401720 0.502540 0.323390 -4.271110 0.036690 -6.441483 12.255134 6.565321 8.140340 0.821584 4.654926 30.803491 0.074366 -1.726365 -10.651209 -4.995604 4.566963 40.238352 -1.522810 3.096980 -0.863420 -1.156842 -29.573893 6.336344 -6.381593 -37.360315 -6.880657 145.760609 14.675138 8.237410 -4.185125 3.861349 -0.103820 0.460030 -0.220490 0.229520 1.846631 32.108889 7.412193 11.311562 28.513455 -13.108978 -141.252925 -14.503246 5.902533 2.083301 -3.226998 -0.071800 0.145090 -0.073170 0.035770 
-0.498330 17.388730 -4.625430 -1.092294 -16.896823 -26.248164 -14.999149 13.027540 2.219931 9.929179 1.922986 3.314526 -8.490450 14.010684 35.914249 0.539800 8.835937 1.702353 0.406910 0.297540 0.255950 18.508762 -11.506320 2.804498 -7.332834 -1.659721 14.205796 7.666669 -8.399446 19.240310 -0.817758 -6.836250 2.091578 0.389340 0.553680 0.302110 -4.150895 -0.256774 -6.457284 11.917846 6.065041 8.870670 1.136355 3.873775 31.635665 -0.087631 -2.243293 -10.918318 -5.927061 5.016863 39.371479 -2.229580 3.476680 -2.054740 -1.348692 -29.890779 6.888566 -5.322517 -35.367884 -8.109289 140.372343 12.956860 2.017169 -4.254500 3.622961 -0.023190 0.473890 -0.232940 0.205770 2.318237 32.768274 7.615189 9.853077 27.966832 -13.410690 -139.197730 -12.535736 0.336287 2.022840 -3.050035 -0.171570 0.241800 -0.013780 -0.008610 
-0.485630 17.361910 -4.685480 -1.759142 -15.163510 -26.171556 -15.022459 13.095951 2.251583 10.456675 1.327467 2.399141 -8.382331 14.131476 37.190319 0.526915 9.020401 1.611342 0.338870 0.190610 0.241130 18.483464 -11.416974 2.805762 -6.628933 -1.937043 13.918259 7.779314 -8.513827 19.482736 -0.803119 -6.743178 2.122317 0.320030 0.536110 0.278760 -4.046472 -0.543562 -6.562839 11.586106 5.714714 9.613922 0.975618 3.322367 31.618258 -0.135357 -2.062634 -11.540121 -6.074857 4.348741 39.993469 -1.741500 2.611850 -2.529990 -3.316732 -30.477007 7.073128 -3.509581 -33.724774 -9.154832 130.847048 7.992423 -7.059177 -4.267630 3.384380 0.051990 0.434670 -0.228750 0.151310 4.252893 32.796600 8.848614 9.629581 24.887296 -14.237114 -135.844735 -9.105495 -8.142980 2.026674 -2.835198 -0.207520 0.257420 0.045290 -0.041530 
-0.462080 17.361100 -4.764750 -2.723437 -14.193446 -25.933677 -14.985320 13.103687 2.306053 11.177890 0.657473 1.483845 -8.679304 14.242393 37.852223 0.472054 9.128177 1.524452 0.303660 0.104510 0.259310 18.512321 -11.389062 2.824225 -5.572625 -2.226276 13.084755 7.594348 -8.477228 19.763842 -0.789359 -6.567876 2.164031 0.268160 0.476900 0.245800 -4.125759 -0.627511 -6.683466 12.410062 4.812537 10.645866 0.317525 2.476225 31.025837 -0.120123 -2.428863 -11.941785 -7.105421 4.409602 41.271868 -0.765660 1.888630 -3.779900 -4.334013 -29.718999 7.388518 -4.557474 -30.976510 -9.489811 121.501864 2.228427 -15.332966 -4.206746 3.215678 0.164830 0.358570 -0.204150 0.093260 5.246371 31.973475 9.407979 11.174074 23.548787 -14.416194 -131.782920 -5.028088 -16.548770 2.019550 -2.606097 -0.248820 0.263970 0.087470 -0.094160 
-0.427070 17.361550 -4.852140 -3.705669 -14.626869 -24.916256 -14.912239 13.156615 2.388856 11.851328 0.065095 0.302018 -9.089675 14.112776 37.494954 0.419969 9.054816 1.522337 0.219290 -0.022420 0.241950 18.556120 -11.393135 2.831667 -4.462623 -2.287986 10.926009 7.513918 -8.422376 20.355255 -0.740419 -6.290762 2.257707 0.174100 0.446940 0.212490 -4.275434 -0.718092 -6.822082 13.882316 3.066926 11.504803 -0.859213 1.118426 28.803056 0.120695 -3.636317 -12.450624 -9.851895 5.500391 43.686724 -1.041800 1.967770 -3.656050 -5.812175 -27.397254 7.965543 -6.787025 -25.992130 -9.217821 113.388149 -4.416710 -21.693277 -4.144996 3.041097 0.265150 0.300380 -0.178080 0.046320 6.380883 30.334388 9.441800 13.651947 23.622074 -13.298557 -126.559456 0.866721 -24.829033 2.019561 -2.315154 -0.291060 0.282460 0.137100 -0.125810 
